HIERARCHY
ROOT Junyuan_V1:Solving:Hips
{
	OFFSET 0.000000 0.000000 0.000000
	CHANNELS 6 Xposition Yposition Zposition Xrotation Yrotation Zrotation
	JOINT Junyuan_V1:Solving:Spine
	{
		OFFSET 0.000000 -11.587388 2.561626
		CHANNELS 6 Xposition Yposition Zposition Xrotation Yrotation Zrotation
		JOINT Junyuan_V1:Solving:Spine1
		{
			OFFSET 0.000000 -9.293384 1.638677
			CHANNELS 6 Xposition Yposition Zposition Xrotation Yrotation Zrotation
			JOINT Junyuan_V1:Solving:Spine2
			{
				OFFSET 0.000000 -9.400841 0.822469
				CHANNELS 6 Xposition Yposition Zposition Xrotation Yrotation Zrotation
				JOINT Junyuan_V1:Solving:Spine3
				{
					OFFSET 0.000000 -9.436749 0.000000
					CHANNELS 6 Xposition Yposition Zposition Xrotation Yrotation Zrotation
					JOINT Junyuan_V1:Solving:Neck
					{
						OFFSET 0.000000 -12.132965 -1.213294
						CHANNELS 6 Xposition Yposition Zposition Xrotation Yrotation Zrotation
						JOINT Junyuan_V1:Solving:Neck1
						{
							OFFSET 0.000000 -6.347839 -0.555364
							CHANNELS 6 Xposition Yposition Zposition Xrotation Yrotation Zrotation
							JOINT Junyuan_V1:Solving:Head
							{
								OFFSET 0.000000 -6.275284 -1.106502
								CHANNELS 6 Xposition Yposition Zposition Xrotation Yrotation Zrotation
								JOINT Junyuan_V1:Solving:HeadEnd
								{
									OFFSET 0.000000 -9.728081 0.000002
									CHANNELS 6 Xposition Yposition Zposition Xrotation Yrotation Zrotation
									End Site
									{
										OFFSET 0.000000 -9.728081 0.000002
									}
								}
							}
						}
					}
					JOINT Junyuan_V1:Solving:RightShoulder
					{
						OFFSET 0.000000 -8.666405 -5.270916
						CHANNELS 6 Xposition Yposition Zposition Xrotation Yrotation Zrotation
						JOINT Junyuan_V1:Solving:RightArm
						{
							OFFSET -19.077805 -0.000008 0.000000
							CHANNELS 6 Xposition Yposition Zposition Xrotation Yrotation Zrotation
							JOINT Junyuan_V1:Solving:RightForeArm
							{
								OFFSET -27.209019 -0.000008 0.000000
								CHANNELS 6 Xposition Yposition Zposition Xrotation Yrotation Zrotation
								JOINT Junyuan_V1:Solving:RightHand
								{
									OFFSET -21.734264 -0.000008 0.000000
									CHANNELS 6 Xposition Yposition Zposition Xrotation Yrotation Zrotation
									JOINT Junyuan_V1:Solving:RightHandThumb1
									{
										OFFSET -3.883522 2.884647 -2.887744
										CHANNELS 6 Xposition Yposition Zposition Xrotation Yrotation Zrotation
										End Site
										{
											OFFSET -5.627335 0.000000 -5.679366
										}
									}
									JOINT Junyuan_V1:Solving:RightHandMiddle1
									{
										OFFSET -10.356049 -0.000004 0.066385
										CHANNELS 6 Xposition Yposition Zposition Xrotation Yrotation Zrotation
										End Site
										{
											OFFSET -7.995132 -0.000004 0.000000
										}
									}
								}
							}
						}
					}
					JOINT Junyuan_V1:Solving:LeftShoulder
					{
						OFFSET 0.000000 -8.666405 -5.270916
						CHANNELS 6 Xposition Yposition Zposition Xrotation Yrotation Zrotation
						JOINT Junyuan_V1:Solving:LeftArm
						{
							OFFSET 19.077805 -0.000008 0.000000
							CHANNELS 6 Xposition Yposition Zposition Xrotation Yrotation Zrotation
							JOINT Junyuan_V1:Solving:LeftForeArm
							{
								OFFSET 27.209019 -0.000008 0.000000
								CHANNELS 6 Xposition Yposition Zposition Xrotation Yrotation Zrotation
								JOINT Junyuan_V1:Solving:LeftHand
								{
									OFFSET 21.734264 -0.000008 0.000000
									CHANNELS 6 Xposition Yposition Zposition Xrotation Yrotation Zrotation
									JOINT Junyuan_V1:Solving:LeftHandThumb1
									{
										OFFSET 3.883522 2.884647 -2.887744
										CHANNELS 6 Xposition Yposition Zposition Xrotation Yrotation Zrotation
										End Site
										{
											OFFSET 5.627335 0.000000 -5.679366
										}
									}
									JOINT Junyuan_V1:Solving:LeftHandMiddle1
									{
										OFFSET 10.356049 -0.000004 0.066385
										CHANNELS 6 Xposition Yposition Zposition Xrotation Yrotation Zrotation
										End Site
										{
											OFFSET 7.995132 -0.000004 0.000000
										}
									}
								}
							}
						}
					}
				}
			}
		}
	}
	JOINT Junyuan_V1:Solving:RightUpLeg
	{
		OFFSET -10.145194 0.000000 0.000000
		CHANNELS 6 Xposition Yposition Zposition Xrotation Yrotation Zrotation
		JOINT Junyuan_V1:Solving:RightLeg
		{
			OFFSET 0.000000 45.059078 -0.000006
			CHANNELS 6 Xposition Yposition Zposition Xrotation Yrotation Zrotation
			JOINT Junyuan_V1:Solving:RightFoot
			{
				OFFSET 0.000000 37.058613 -0.000006
				CHANNELS 6 Xposition Yposition Zposition Xrotation Yrotation Zrotation
				JOINT Junyuan_V1:Solving:RightForeFoot
				{
					OFFSET 0.000000 3.397476 -0.000000
					CHANNELS 6 Xposition Yposition Zposition Xrotation Yrotation Zrotation
					JOINT Junyuan_V1:Solving:RightToeBase
					{
						OFFSET 0.000000 0.000000 -13.305598
						CHANNELS 6 Xposition Yposition Zposition Xrotation Yrotation Zrotation
						JOINT Junyuan_V1:Solving:RightToeBaseEnd
						{
							OFFSET 0.000000 0.000000 -4.190945
							CHANNELS 6 Xposition Yposition Zposition Xrotation Yrotation Zrotation
							End Site
							{
								OFFSET 0.000000 -4.190948 0.000000
							}
						}
					}
				}
			}
		}
	}
	JOINT Junyuan_V1:Solving:LeftUpLeg
	{
		OFFSET 10.145194 0.000000 0.000000
		CHANNELS 6 Xposition Yposition Zposition Xrotation Yrotation Zrotation
		JOINT Junyuan_V1:Solving:LeftLeg
		{
			OFFSET 0.000000 45.059078 -0.000006
			CHANNELS 6 Xposition Yposition Zposition Xrotation Yrotation Zrotation
			JOINT Junyuan_V1:Solving:LeftFoot
			{
				OFFSET 0.000000 37.058613 -0.000006
				CHANNELS 6 Xposition Yposition Zposition Xrotation Yrotation Zrotation
				JOINT Junyuan_V1:Solving:LeftForeFoot
				{
					OFFSET 0.000000 3.397476 -0.000000
					CHANNELS 6 Xposition Yposition Zposition Xrotation Yrotation Zrotation
					JOINT Junyuan_V1:Solving:LeftToeBase
					{
						OFFSET 0.000000 0.000000 -13.305598
						CHANNELS 6 Xposition Yposition Zposition Xrotation Yrotation Zrotation
						JOINT Junyuan_V1:Solving:LeftToeBaseEnd
						{
							OFFSET 0.000000 0.000000 -4.652039
							CHANNELS 6 Xposition Yposition Zposition Xrotation Yrotation Zrotation
							End Site
							{
								OFFSET 0.000000 -4.652039 0.000000
							}
						}
					}
				}
			}
		}
	}
}
MOTION
Frames: 5
Frame Time: 0.041667
-36.557087 69.676109 -88.906799 -85.340523 -5.468719 178.793356 -0.000005 -11.587381 2.561623 13.687812 -0.511930 -2.571017 0.000002 -9.293389 1.638654 1.728989 0.024497 -0.517254 0.000001 -9.400831 0.822463 -2.798507 -2.559560 0.534254 0.000001 -9.436738 0.000006 -1.186655 -2.092679 3.168528 0.000003 -12.132941 -1.213307 -8.672698 3.141308 0.466500 0.000003 -6.347828 -0.555352 -5.287200 -2.481117 4.203942 -0.000001 -6.275267 -1.106484 -2.962440 -1.104776 3.348402 -0.000003 -9.728111 -0.000005 -0.000000 -0.000000 0.000000 0.000008 -8.666424 -5.270917 -0.000008 20.084269 15.443416 -19.077801 -0.000002 0.000005 -24.527368 5.435524 -44.562265 -27.209023 0.000003 0.000008 1.669936 -0.210224 0.006127 -21.734268 -0.000011 0.000003 1.675272 -3.991835 22.788805 -3.883526 2.884657 -2.887760 -0.000002 -0.000003 0.000004 -10.356056 -0.000009 0.066390 0.000002 -0.000000 0.000000 0.000001 -8.666420 -5.270917 -0.000007 -23.909682 -15.553382 19.077803 -0.000009 0.000009 -15.577857 18.489447 51.110989 27.209024 -0.000015 0.000011 5.262413 -1.564301 0.144058 21.734249 -0.000023 -0.000002 -1.463085 -9.063082 -9.210002 3.883494 2.884644 -2.887732 -0.000000 0.000007 -0.000006 10.356039 0.000008 0.066395 -0.000002 0.000001 -0.000003 -10.145197 0.000005 0.000010 8.894207 13.980308 0.318966 0.000004 45.059074 -0.000008 -2.139255 0.000002 0.000000 -0.000000 37.058613 0.000013 1.901041 -4.192426 8.980743 -0.000002 3.397476 -0.000010 0.000001 -0.000000 -0.000001 0.000002 -0.000003 -13.305614 5.475221 0.000001 -0.000002 -0.000006 -0.000000 -4.190948 -0.000001 -0.000003 0.000000 10.145199 0.000010 -0.000006 -4.639867 -33.351329 -8.648512 0.000002 45.059071 -0.000005 17.477276 -0.000002 -0.000001 0.000012 37.058617 -0.000012 -6.724351 -8.685796 8.743073 0.000003 3.397484 -0.000010 0.000000 -0.000001 0.000000 0.000012 -0.000005 -13.305621 10.388619 0.000005 -0.000000 0.000027 0.000007 -4.652036 -0.000002 0.000007 -0.000000 
-36.640965 69.594841 -88.880531 -85.281100 -5.397757 178.896615 0.000000 -11.587410 2.561620 13.661661 -0.501987 -2.588762 0.000002 -9.293392 1.638676 1.718619 0.024514 -0.512960 -0.000005 -9.400834 0.822479 -2.787924 -2.522527 0.536733 0.000006 -9.436724 0.000019 -1.167290 -2.081231 3.147750 -0.000004 -12.132953 -1.213280 -8.579893 3.127499 0.443275 0.000004 -6.347848 -0.555378 -5.190686 -2.541832 4.210994 0.000004 -6.275276 -1.106519 -2.883734 -1.108802 3.362385 -0.000000 -9.728081 0.000005 0.000000 0.000000 -0.000000 0.000005 -8.666397 -5.270896 -0.000008 20.022556 15.268379 -19.077805 0.000006 0.000003 -24.228984 5.284310 -45.172921 -27.209019 0.000011 -0.000007 1.703891 -0.291763 0.008685 -21.734257 0.000011 -0.000008 1.680787 -4.029160 22.666046 -3.883518 2.884638 -2.887762 -0.000001 -0.000000 0.000006 -10.356050 -0.000013 0.066396 0.000002 0.000001 -0.000001 -0.000003 -8.666412 -5.270894 -0.000008 -23.871863 -15.486453 19.077805 -0.000001 0.000000 -15.495109 18.553171 51.272915 27.209034 -0.000037 0.000002 5.288544 -1.640444 0.151828 21.734259 -0.000024 0.000001 -1.325054 -8.840383 -8.559334 3.883506 2.884625 -2.887765 -0.000006 0.000003 -0.000011 10.356030 -0.000021 0.066382 0.000001 -0.000002 -0.000003 -10.145193 -0.000021 -0.000009 8.979914 14.033386 0.281605 0.000005 45.059090 -0.000009 -2.047938 0.000003 0.000000 -0.000003 37.058609 -0.000010 1.780814 -4.178152 8.885869 0.000002 3.397476 0.000003 0.000000 -0.000001 -0.000001 -0.000001 -0.000007 -13.305598 5.503392 0.000004 -0.000000 0.000005 -0.000001 -4.190947 -0.000002 -0.000001 0.000000 10.145194 -0.000005 -0.000003 -4.585344 -33.993541 -8.860747 -0.000003 45.059067 -0.000008 16.775030 -0.000005 -0.000001 0.000001 37.058620 0.000009 -6.346765 -9.122873 8.500983 -0.000017 3.397476 -0.000013 -0.000000 0.000004 -0.000000 0.000003 0.000002 -13.305614 10.376792 0.000001 -0.000002 0.000009 -0.000007 -4.652051 0.000001 0.000002 0.000001 
-36.733826 69.508224 -88.855186 -85.205230 -5.300583 178.988591 0.000003 -11.587407 2.561628 13.644776 -0.488927 -2.592812 -0.000003 -9.293379 1.638683 1.715604 0.026110 -0.506128 -0.000000 -9.400843 0.822453 -2.782119 -2.465660 0.534659 0.000013 -9.436755 0.000016 -1.157123 -2.064729 3.119135 0.000006 -12.132953 -1.213291 -8.470031 3.114835 0.422440 -0.000000 -6.347833 -0.555354 -5.088096 -2.613036 4.224728 0.000003 -6.275287 -1.106485 -2.804347 -1.114571 3.380422 0.000001 -9.728073 0.000011 -0.000001 -0.000000 -0.000000 0.000013 -8.666409 -5.270925 -0.000004 19.967404 15.085829 -19.077793 -0.000002 -0.000011 -23.901323 5.071587 -45.783158 -27.209036 0.000017 -0.000007 1.752886 -0.343835 0.010527 -21.734266 -0.000025 -0.000010 1.684008 -4.042941 22.635833 -3.883514 2.884571 -2.887765 0.000003 0.000005 0.000001 -10.356043 -0.000068 0.066397 0.000003 -0.000000 -0.000002 0.000007 -8.666409 -5.270925 -0.000005 -23.821005 -15.419263 19.077810 0.000006 -0.000004 -15.401090 18.603094 51.430867 27.209040 0.000017 0.000004 5.263930 -1.682983 0.155036 21.734261 -0.000018 0.000007 -1.189148 -8.653674 -7.854867 3.883531 2.884631 -2.887758 0.000000 0.000007 -0.000008 10.356058 -0.000018 0.066385 0.000002 -0.000001 0.000002 -10.145193 -0.000029 -0.000004 9.119301 13.902321 0.252874 0.000003 45.059082 -0.000004 -2.029921 -0.000000 0.000000 -0.000006 37.058624 0.000003 1.703534 -3.941790 8.794457 -0.000002 3.397476 0.000015 0.000000 -0.000003 -0.000001 0.000001 -0.000003 -13.305607 5.516643 -0.000002 -0.000001 0.000000 -0.000008 -4.190947 -0.000001 -0.000001 0.000000 10.145185 -0.000003 0.000010 -4.470833 -34.505597 -9.016119 0.000001 45.059090 -0.000005 16.043010 0.000001 -0.000001 0.000019 37.058617 -0.000007 -5.786056 -9.473394 8.275269 -0.000003 3.397476 0.000001 0.000000 0.000003 -0.000000 -0.000016 0.000009 -13.305578 10.137271 0.000004 -0.000004 0.000005 0.000000 -4.652039 0.000001 -0.000001 -0.000000 
-36.838104 69.417389 -88.830994 -85.128527 -5.198224 179.059488 -0.000000 -11.587389 2.561607 13.620079 -0.475793 -2.573973 0.000006 -9.293360 1.638675 1.714926 0.027140 -0.503002 -0.000004 -9.400823 0.822452 -2.769894 -2.409601 0.533827 -0.000011 -9.436733 0.000011 -1.144339 -2.047396 3.089266 -0.000002 -12.132969 -1.213287 -8.365930 3.100977 0.418190 0.000006 -6.347803 -0.555361 -4.984783 -2.672555 4.236188 0.000002 -6.275301 -1.106490 -2.725329 -1.117805 3.392569 -0.000006 -9.728088 0.000006 -0.000002 0.000000 -0.000001 0.000004 -8.666420 -5.270916 -0.000007 19.941646 14.885865 -19.077806 -0.000012 0.000004 -23.556112 4.783457 -46.394702 -27.209030 0.000007 0.000008 1.742882 -0.402598 0.012250 -21.734253 0.000016 -0.000004 1.644782 -3.938139 22.689508 -3.883513 2.884634 -2.887763 0.000004 -0.000000 0.000001 -10.356064 -0.000020 0.066385 0.000004 -0.000001 0.000000 0.000000 -8.666420 -5.270916 -0.000006 -23.764738 -15.341580 19.077812 -0.000007 0.000001 -15.360342 18.636376 51.594761 27.209021 -0.000030 -0.000002 5.237100 -1.754688 0.160820 21.734241 -0.000013 -0.000011 -1.029760 -8.376034 -7.034368 3.883538 2.884651 -2.887743 -0.000000 0.000000 0.000001 10.356084 0.000010 0.066374 0.000000 0.000001 0.000005 -10.145189 -0.000004 -0.000012 9.210730 14.006707 0.260490 0.000002 45.059090 -0.000008 -1.915604 0.000002 -0.000000 0.000003 37.058613 0.000006 1.557972 -3.931093 8.677609 -0.000001 3.397476 -0.000007 0.000000 0.000000 -0.000002 0.000005 -0.000010 -13.305617 5.531633 0.000001 -0.000001 -0.000003 0.000000 -4.190947 0.000000 0.000004 -0.000000 10.145199 -0.000004 -0.000016 -4.300119 -34.908287 -9.105827 -0.000004 45.059082 -0.000004 15.282200 -0.000002 -0.000003 0.000008 37.058605 -0.000007 -5.103343 -9.830649 8.189876 0.000004 3.397484 0.000002 -0.000000 0.000006 0.000000 -0.000010 -0.000005 -13.305614 9.978984 0.000003 0.000000 0.000012 0.000007 -4.652027 0.000000 0.000007 -0.000001 
-36.944790 69.320892 -88.805618 -85.049625 -5.080997 179.147953 0.000000 -11.587379 2.561623 13.598706 -0.463966 -2.569218 -0.000001 -9.293364 1.638665 1.708544 0.027173 -0.501034 -0.000005 -9.400860 0.822473 -2.763454 -2.354000 0.535270 -0.000011 -9.436750 0.000005 -1.132594 -2.030763 3.055252 -0.000002 -12.132978 -1.213302 -8.258751 3.099572 0.415072 0.000003 -6.347844 -0.555358 -4.881439 -2.731811 4.245394 0.000005 -6.275312 -1.106480 -2.641059 -1.121731 3.405520 0.000005 -9.728050 0.000012 -0.000000 0.000000 0.000000 -0.000004 -8.666428 -5.270928 -0.000008 19.940201 14.671429 -19.077810 -0.000005 -0.000008 -23.231348 4.490364 -46.999659 -27.209028 0.000002 -0.000010 1.751200 -0.447189 0.013673 -21.734247 0.000027 -0.000006 1.599290 -3.804141 22.822474 -3.883500 2.884647 -2.887744 0.000005 -0.000007 0.000008 -10.356047 -0.000021 0.066391 0.000004 -0.000001 0.000003 -0.000010 -8.666428 -5.270927 -0.000010 -23.697828 -15.259285 19.077787 0.000007 0.000003 -15.355310 18.656696 51.754594 27.209045 -0.000012 0.000000 5.284388 -1.852070 0.171278 21.734272 0.000019 0.000017 -0.873764 -8.092278 -6.183449 3.883510 2.884667 -2.887764 0.000005 0.000000 0.000004 10.356073 -0.000002 0.066367 0.000001 0.000000 0.000003 -10.145195 0.000022 -0.000010 9.322186 14.036001 0.249357 -0.000003 45.059078 -0.000015 -1.818080 0.000001 -0.000000 0.000004 37.058617 0.000009 1.422373 -3.844625 8.562152 -0.000004 3.397476 -0.000009 0.000000 -0.000000 -0.000000 -0.000000 0.000001 -13.305600 5.573466 -0.000000 -0.000002 -0.000001 -0.000000 -4.190934 -0.000000 0.000002 -0.000001 10.145187 0.000007 0.000005 -4.094791 -35.174060 -9.161782 0.000002 45.059090 0.000006 14.507998 -0.000003 -0.000002 0.000016 37.058601 -0.000004 -4.337813 -10.211870 8.083693 0.000002 3.397476 0.000005 -0.000000 0.000004 0.000000 0.000005 0.000004 -13.305605 9.833019 0.000005 0.000000 -0.000004 0.000008 -4.652034 0.000001 0.000007 -0.000003 
